<svg width="32" height="33" viewBox="0 0 32 33" fill="none" xmlns="http://www.w3.org/2000/svg">
<mask id="mask0_199_161" style="mask-type:alpha" maskUnits="userSpaceOnUse" x="0" y="0" width="32" height="33">
<rect y="0.189331" width="32" height="32" fill="#D9D9D9"/>
</mask>
<g mask="url(#mask0_199_161)">
<path d="M15.9999 23.6893C16.3777 23.6893 16.6946 23.556 16.9506 23.2893C17.2057 23.0227 17.3333 22.7005 17.3333 22.3227C17.3333 21.9449 17.2057 21.6227 16.9506 21.356C16.6946 21.0893 16.3777 20.956 15.9999 20.956C15.5999 20.956 15.2724 21.0893 15.0173 21.356C14.7613 21.6227 14.6333 21.9449 14.6333 22.3227C14.6333 22.7005 14.7613 23.0227 15.0173 23.2893C15.2724 23.556 15.5999 23.6893 15.9999 23.6893ZM15.0333 18.8893H16.9333C16.9333 18.2449 17.0221 17.728 17.1999 17.3387C17.3777 16.9502 17.7999 16.4227 18.4666 15.756C19.0666 15.1782 19.5221 14.6391 19.8333 14.1387C20.1444 13.6391 20.2999 13.056 20.2999 12.3893C20.2999 11.2338 19.8888 10.3338 19.0666 9.68934C18.2444 9.0449 17.2666 8.72267 16.1333 8.72267C15.0221 8.72267 14.0999 9.02267 13.3666 9.62267C12.6333 10.2227 12.111 10.9227 11.7999 11.7227L13.5333 12.3893C13.6888 11.9671 13.9613 11.5449 14.3506 11.1227C14.739 10.7005 15.3221 10.4893 16.0999 10.4893C16.8999 10.4893 17.4888 10.7058 17.8666 11.1387C18.2444 11.5725 18.4333 12.0449 18.4333 12.556C18.4333 13.0005 18.2999 13.4116 18.0333 13.7893C17.7666 14.1671 17.4333 14.5338 17.0333 14.8893C16.1666 15.6671 15.6168 16.2951 15.3839 16.7733C15.1501 17.2507 15.0333 17.956 15.0333 18.8893ZM15.9999 28.856C14.2444 28.856 12.5999 28.5227 11.0666 27.856C9.53325 27.1893 8.19414 26.2893 7.04925 25.156C5.90525 24.0227 4.99992 22.6836 4.33325 21.1387C3.66659 19.5947 3.33325 17.9449 3.33325 16.1893C3.33325 14.4338 3.66659 12.7836 4.33325 11.2387C4.99992 9.69467 5.90525 8.35601 7.04925 7.22267C8.19414 6.08934 9.53325 5.18934 11.0666 4.52267C12.5999 3.85601 14.2444 3.52267 15.9999 3.52267C17.7777 3.52267 19.4333 3.85601 20.9666 4.52267C22.4999 5.18934 23.839 6.08934 24.9839 7.22267C26.1279 8.35601 27.0279 9.69467 27.6839 11.2387C28.339 12.7836 28.6666 14.4338 28.6666 16.1893C28.6666 17.9449 28.339 19.5947 27.6839 21.1387C27.0279 22.6836 26.1279 24.0227 24.9839 25.156C23.839 26.2893 22.4999 27.1893 20.9666 27.856C19.4333 28.5227 17.7777 28.856 15.9999 28.856ZM15.9999 26.856C18.9777 26.856 21.4999 25.8173 23.5666 23.74C25.6332 21.6618 26.6666 19.1449 26.6666 16.1893C26.6666 13.2338 25.6332 10.7169 23.5666 8.63867C21.4999 6.56134 18.9777 5.52267 15.9999 5.52267C13.0666 5.52267 10.5555 6.56134 8.46658 8.63867C6.3777 10.7169 5.33325 13.2338 5.33325 16.1893C5.33325 19.1449 6.3777 21.6618 8.46658 23.74C10.5555 25.8173 13.0666 26.856 15.9999 26.856Z" fill="#595855"/>
</g>
</svg>
