<svg width="113" height="33" viewBox="0 0 113 33" fill="none" xmlns="http://www.w3.org/2000/svg">
<path d="M16.7759 0L0.5 15.9894L16.7759 31.9788L33.0518 15.9894L16.7759 0ZM17.6251 4.79323V3.19634L29.7982 15.1551H17.6251V4.79323V4.79323ZM15.9267 4.79323V15.1525H3.75362L15.9267 3.19634V4.79323ZM15.9267 16.8237V28.7824L3.75362 16.8237H15.9267ZM29.7982 16.8237L17.6251 28.7824V16.8237H29.7982V16.8237Z" fill="black"/>
<path opacity="0.3" d="M15.9267 4.79323V15.1526H15.5933H3.75366L15.9267 3.19634V4.79323Z" fill="black"/>
<path opacity="0.3" d="M29.7983 16.8237L17.6252 28.7824V16.8237H29.754H29.7983Z" fill="black"/>
<path d="M58.4162 3.33155H58.04C57.3139 3.33155 56.722 3.91308 56.722 4.62639V6.45979C54.8761 4.16231 52.0213 2.68413 48.8195 2.68413C43.2674 2.68413 38.7534 7.12154 38.7534 12.573C38.7534 18.0246 43.2703 22.462 48.8195 22.462C52.0213 22.462 54.879 20.9838 56.722 18.6863V20.5197C56.722 21.233 57.3139 21.8145 58.04 21.8145H58.4162C59.1423 21.8145 59.7342 21.233 59.7342 20.5197V4.62066C59.7342 3.90735 59.1423 3.32582 58.4162 3.32582V3.33155ZM48.8195 19.8751C44.7225 19.8751 41.3866 16.6008 41.3866 12.573C41.3866 8.54529 44.7196 5.27095 48.8195 5.27095C52.9195 5.27095 56.2525 8.54529 56.2525 12.573C56.2525 16.6008 52.9195 19.8751 48.8195 19.8751Z" fill="black"/>
<path d="M110.73 3.33156H110.354C109.628 3.33156 109.036 3.9131 109.036 4.6264V6.45981C107.19 4.16232 104.335 2.68414 101.133 2.68414C95.5811 2.68414 91.0671 7.12155 91.0671 12.5731C91.0671 18.0246 95.5841 22.462 101.133 22.462C104.335 22.462 107.193 20.9838 109.036 18.6863V20.5197C109.036 21.233 109.628 21.8146 110.354 21.8146H110.73C111.456 21.8146 112.048 21.233 112.048 20.5197V4.62067C112.048 3.90737 111.456 3.32583 110.73 3.32583V3.33156ZM101.133 19.8752C97.0362 19.8752 93.7003 16.6008 93.7003 12.5731C93.7003 8.5453 97.0333 5.27096 101.133 5.27096C105.233 5.27096 108.566 8.5453 108.566 12.5731C108.566 16.6008 105.233 19.8752 101.133 19.8752Z" fill="black"/>
<path d="M72.1538 2.68414H66.1322C65.7065 2.68414 65.3215 2.86748 65.0474 3.16255C64.68 3.40605 64.438 3.83002 64.438 4.31415V21.0984C64.438 21.8518 65.0299 22.4648 65.756 22.4648H66.1322C66.8583 22.4648 67.4502 21.8518 67.4502 21.0984V5.80666H72.1538C72.9849 5.80666 73.6585 5.10767 73.6585 4.2454C73.6585 3.38313 72.9849 2.68414 72.1538 2.68414V2.68414Z" fill="black"/>
<path d="M88.5388 20.2017L88.5242 20.1931C88.2356 20.0442 87.9556 19.8809 87.6844 19.7033C87.3899 19.5085 87.0254 19.4397 86.6871 19.5429C85.8094 19.8121 84.8617 19.9267 83.8761 19.8494C80.2281 19.5629 77.2975 16.6409 77.0613 13.0543C76.7814 8.81172 80.2165 5.27096 84.4768 5.27096C85.2408 5.27096 85.9786 5.38555 86.6726 5.59753C87.0108 5.70066 87.3753 5.6491 87.6669 5.4543C87.941 5.27096 88.2268 5.10194 88.5242 4.95011L88.5388 4.94152C89.1512 4.62927 89.1249 3.77273 88.4922 3.50344C87.2383 2.96488 85.8561 2.66982 84.401 2.68128C78.9188 2.72138 74.4223 7.16452 74.4107 12.5501C74.399 18.0131 78.9189 22.462 84.4768 22.462C85.9115 22.462 87.2762 22.1641 88.5126 21.6312C89.1337 21.3619 89.1395 20.5083 88.5388 20.2017V20.2017ZM84.2406 3.97898C84.2727 3.97898 84.3018 3.97898 84.331 3.97898C84.2639 3.97898 84.1969 3.97898 84.1298 3.98471C84.1648 3.98471 84.2027 3.97898 84.2377 3.97898H84.2406ZM75.7316 12.4069C75.7316 12.3553 75.7316 12.3066 75.7316 12.2551C75.7316 12.2322 75.7345 12.2121 75.7345 12.1892C75.7316 12.2608 75.7316 12.3353 75.7287 12.4069H75.7316Z" fill="black"/>
<path d="M78.594 29.003V28.6571H79.6744C79.8234 28.6571 79.9564 28.627 80.0735 28.5666C80.1942 28.5063 80.2882 28.4212 80.3556 28.3112C80.4266 28.1976 80.462 28.0628 80.462 27.9067C80.462 27.7506 80.4266 27.6175 80.3556 27.5075C80.2882 27.394 80.1942 27.3071 80.0735 27.2467C79.9564 27.1829 79.8234 27.1509 79.6744 27.1509H78.594V26.8103H79.701C79.921 26.8103 80.1179 26.8565 80.2917 26.9487C80.4656 27.0374 80.6022 27.1634 80.7015 27.3266C80.8044 27.4898 80.8559 27.6832 80.8559 27.9067C80.8559 28.1267 80.8044 28.32 80.7015 28.4868C80.6022 28.65 80.4656 28.7777 80.2917 28.87C80.1179 28.9587 79.921 29.003 79.701 29.003H78.594ZM78.3438 30.472V26.8103H78.7324V30.472H78.3438ZM82.1832 30.472V27.9706H82.5558V30.472H82.1832ZM82.5558 29.0137L82.4014 28.9445C82.4014 28.6287 82.4777 28.3786 82.6303 28.1941C82.7864 28.0096 82.9993 27.9173 83.2689 27.9173C83.3931 27.9173 83.5066 27.9404 83.6095 27.9865C83.7124 28.0291 83.8082 28.0983 83.8969 28.1941L83.6521 28.4549C83.5918 28.3875 83.5244 28.3396 83.4499 28.3112C83.3789 28.2828 83.2973 28.2686 83.2051 28.2686C83.0135 28.2686 82.8573 28.3325 82.7367 28.4602C82.6161 28.5844 82.5558 28.7689 82.5558 29.0137ZM86.0518 30.5252C85.7999 30.5252 85.5746 30.4684 85.3759 30.3549C85.1772 30.2413 85.0193 30.0852 84.9022 29.8865C84.7887 29.6878 84.7319 29.4643 84.7319 29.2159C84.7319 28.9711 84.7887 28.7511 84.9022 28.556C85.0157 28.3573 85.1701 28.2012 85.3652 28.0876C85.5604 27.9741 85.7786 27.9173 86.0198 27.9173C86.2469 27.9173 86.4474 27.9688 86.6212 28.0717C86.7986 28.1746 86.937 28.3183 87.0364 28.5028C87.1393 28.6837 87.1907 28.8931 87.1907 29.1308C87.1907 29.1592 87.1889 29.1929 87.1854 29.2319C87.1818 29.2674 87.1747 29.31 87.1641 29.3596H84.998V29.0403H86.9619L86.8288 29.1574C86.8324 28.9729 86.8004 28.815 86.733 28.6837C86.6691 28.5489 86.5751 28.446 86.4509 28.375C86.3303 28.3005 86.1831 28.2633 86.0092 28.2633C85.8282 28.2633 85.6704 28.3023 85.5355 28.3804C85.4007 28.4584 85.2943 28.5684 85.2162 28.7103C85.1417 28.8487 85.1044 29.0137 85.1044 29.2053C85.1044 29.3969 85.1435 29.5654 85.2215 29.7109C85.3031 29.8564 85.4149 29.9699 85.5568 30.0515C85.7023 30.1331 85.869 30.1739 86.0571 30.1739C86.2097 30.1739 86.3498 30.1473 86.4775 30.0941C86.6053 30.0373 86.7135 29.9539 86.8022 29.8439L87.0417 30.0888C86.9246 30.2271 86.7791 30.3354 86.6053 30.4134C86.435 30.4879 86.2505 30.5252 86.0518 30.5252ZM89.2838 30.472L88.1289 27.9706H88.544L89.5179 30.158H89.2838L90.263 27.9706H90.6675L89.502 30.472H89.2838ZM91.8262 30.472V27.9706H92.2041V30.472H91.8262ZM92.0125 27.4277C91.9416 27.4277 91.8812 27.4029 91.8316 27.3532C91.7819 27.3 91.7571 27.2379 91.7571 27.1669C91.7571 27.0924 91.7819 27.0303 91.8316 26.9806C91.8812 26.931 91.9416 26.9061 92.0125 26.9061C92.0906 26.9061 92.1527 26.931 92.1988 26.9806C92.2485 27.0303 92.2733 27.0924 92.2733 27.1669C92.2733 27.2379 92.2485 27.3 92.1988 27.3532C92.1527 27.4029 92.0906 27.4277 92.0125 27.4277ZM94.7156 30.5252C94.4849 30.5252 94.2774 30.4684 94.0929 30.3549C93.9084 30.2413 93.7611 30.087 93.6511 29.8918C93.5447 29.6932 93.4915 29.4714 93.4915 29.2266C93.4915 28.9782 93.5447 28.7565 93.6511 28.5613C93.7611 28.3626 93.9084 28.2065 94.0929 28.093C94.2774 27.9759 94.4849 27.9173 94.7156 27.9173C94.9036 27.9173 95.0739 27.9546 95.2265 28.0291C95.3791 28.1036 95.505 28.2101 95.6044 28.3484C95.7073 28.4833 95.7676 28.6429 95.7853 28.8274V29.6098C95.764 29.7907 95.7037 29.9504 95.6044 30.0888C95.5086 30.2236 95.3844 30.33 95.2318 30.4081C95.0792 30.4861 94.9072 30.5252 94.7156 30.5252ZM94.7794 30.1686C94.9533 30.1686 95.1059 30.1296 95.2371 30.0515C95.3684 29.9699 95.4713 29.8581 95.5458 29.7162C95.6203 29.5707 95.6576 29.4058 95.6576 29.2213C95.6576 29.0332 95.6186 28.8682 95.5405 28.7263C95.466 28.5844 95.3631 28.4726 95.2318 28.391C95.1005 28.3094 94.948 28.2686 94.7741 28.2686C94.6003 28.2686 94.4459 28.3094 94.3111 28.391C94.1763 28.4726 94.0698 28.5861 93.9918 28.7316C93.9173 28.8735 93.88 29.0368 93.88 29.2213C93.88 29.4058 93.9173 29.5707 93.9918 29.7162C94.0698 29.8581 94.1763 29.9699 94.3111 30.0515C94.4495 30.1296 94.6056 30.1686 94.7794 30.1686ZM96.0088 30.472H95.6363V29.8014L95.7108 29.184L95.6363 28.5826V26.7039H96.0088V30.472ZM98.6112 30.5252C98.3592 30.5252 98.1339 30.4684 97.9352 30.3549C97.7366 30.2413 97.5787 30.0852 97.4616 29.8865C97.348 29.6878 97.2913 29.4643 97.2913 29.2159C97.2913 28.9711 97.348 28.7511 97.4616 28.556C97.5751 28.3573 97.7295 28.2012 97.9246 28.0876C98.1197 27.9741 98.338 27.9173 98.5792 27.9173C98.8063 27.9173 99.0068 27.9688 99.1806 28.0717C99.358 28.1746 99.4964 28.3183 99.5958 28.5028C99.6986 28.6837 99.7501 28.8931 99.7501 29.1308C99.7501 29.1592 99.7483 29.1929 99.7448 29.2319C99.7412 29.2674 99.7341 29.31 99.7235 29.3596H97.5574V29.0403H99.5212L99.3882 29.1574C99.3917 28.9729 99.3598 28.815 99.2924 28.6837C99.2285 28.5489 99.1345 28.446 99.0103 28.375C98.8897 28.3005 98.7424 28.2633 98.5686 28.2633C98.3876 28.2633 98.2297 28.3023 98.0949 28.3804C97.9601 28.4584 97.8536 28.5684 97.7756 28.7103C97.7011 28.8487 97.6638 29.0137 97.6638 29.2053C97.6638 29.3969 97.7028 29.5654 97.7809 29.7109C97.8625 29.8564 97.9743 29.9699 98.1162 30.0515C98.2617 30.1331 98.4284 30.1739 98.6165 30.1739C98.769 30.1739 98.9092 30.1473 99.0369 30.0941C99.1647 30.0373 99.2729 29.9539 99.3616 29.8439L99.6011 30.0888C99.484 30.2271 99.3385 30.3354 99.1647 30.4134C98.9944 30.4879 98.8099 30.5252 98.6112 30.5252ZM97.8661 27.5874L97.6958 27.4171L98.4249 26.5974H98.7229L99.4521 27.4171L99.2817 27.5874L98.4515 26.8636L98.7016 26.8689L97.8661 27.5874ZM102.832 30.472V29.003C102.832 28.7831 102.766 28.6057 102.635 28.4708C102.507 28.3325 102.337 28.2633 102.124 28.2633C101.979 28.2633 101.851 28.2952 101.741 28.3591C101.631 28.4229 101.544 28.5099 101.48 28.6199C101.416 28.7298 101.384 28.8558 101.384 28.9977L101.214 28.9019C101.214 28.7139 101.258 28.5453 101.347 28.3963C101.436 28.2473 101.555 28.1302 101.704 28.0451C101.856 27.9599 102.03 27.9173 102.225 27.9173C102.417 27.9173 102.587 27.9635 102.736 28.0557C102.885 28.148 103.001 28.2721 103.082 28.4283C103.167 28.5844 103.21 28.7547 103.21 28.9392V30.472H102.832ZM101.012 30.472V27.9706H101.384V30.472H101.012ZM105.738 30.5252C105.493 30.5252 105.271 30.4684 105.072 30.3549C104.877 30.2378 104.721 30.0799 104.604 29.8812C104.491 29.6825 104.434 29.4608 104.434 29.2159C104.434 28.9711 104.491 28.7511 104.604 28.556C104.721 28.3573 104.877 28.2012 105.072 28.0876C105.271 27.9741 105.493 27.9173 105.738 27.9173C105.926 27.9173 106.101 27.9528 106.265 28.0238C106.428 28.0947 106.566 28.1941 106.68 28.3218L106.435 28.572C106.35 28.4762 106.247 28.4034 106.126 28.3537C106.006 28.3005 105.876 28.2739 105.738 28.2739C105.56 28.2739 105.402 28.3147 105.264 28.3963C105.126 28.4779 105.017 28.5897 104.939 28.7316C104.861 28.87 104.822 29.0314 104.822 29.2159C104.822 29.3969 104.861 29.5601 104.939 29.7056C105.017 29.8475 105.126 29.9593 105.264 30.0409C105.402 30.1225 105.56 30.1633 105.738 30.1633C105.88 30.1633 106.011 30.1384 106.131 30.0888C106.252 30.0355 106.355 29.961 106.44 29.8652L106.69 30.1154C106.573 30.2467 106.431 30.3478 106.265 30.4187C106.101 30.4897 105.926 30.5252 105.738 30.5252ZM107.905 30.472V27.9706H108.283V30.472H107.905ZM108.091 27.4277C108.02 27.4277 107.96 27.4029 107.91 27.3532C107.861 27.3 107.836 27.2379 107.836 27.1669C107.836 27.0924 107.861 27.0303 107.91 26.9806C107.96 26.931 108.02 26.9061 108.091 26.9061C108.169 26.9061 108.231 26.931 108.277 26.9806C108.327 27.0303 108.352 27.0924 108.352 27.1669C108.352 27.2379 108.327 27.3 108.277 27.3532C108.231 27.4029 108.169 27.4277 108.091 27.4277ZM110.816 30.5252C110.578 30.5252 110.365 30.4684 110.177 30.3549C109.989 30.2378 109.84 30.0817 109.73 29.8865C109.623 29.6914 109.57 29.4714 109.57 29.2266C109.57 28.9782 109.623 28.7565 109.73 28.5613C109.84 28.3626 109.989 28.2065 110.177 28.093C110.365 27.9759 110.576 27.9173 110.81 27.9173C111.002 27.9173 111.172 27.9564 111.321 28.0344C111.474 28.1089 111.596 28.2154 111.688 28.3537C111.784 28.4886 111.843 28.6465 111.864 28.8274V29.6098C111.843 29.7907 111.784 29.9504 111.688 30.0888C111.596 30.2271 111.474 30.3354 111.321 30.4134C111.172 30.4879 111.004 30.5252 110.816 30.5252ZM110.874 30.1686C111.133 30.1686 111.341 30.0817 111.497 29.9078C111.656 29.734 111.736 29.5051 111.736 29.2213C111.736 29.0332 111.699 28.8682 111.624 28.7263C111.554 28.5808 111.452 28.4691 111.321 28.391C111.193 28.3094 111.043 28.2686 110.869 28.2686C110.691 28.2686 110.533 28.3094 110.395 28.391C110.26 28.4726 110.152 28.5861 110.07 28.7316C109.992 28.8735 109.953 29.0368 109.953 29.2213C109.953 29.4058 109.992 29.569 110.07 29.7109C110.152 29.8528 110.262 29.9646 110.4 30.0462C110.539 30.1278 110.697 30.1686 110.874 30.1686ZM111.715 30.472V29.8014L111.789 29.184L111.715 28.5826V27.9706H112.087V30.472H111.715Z" fill="black"/>
</svg>
